<svg viewBox="0 0 20 20" fill="none" xmlns="http://www.w3.org/2000/svg">
<path d="M14.1667 20C14.2764 20.0006 14.3851 19.9796 14.4866 19.9381C14.5882 19.8966 14.6805 19.8355 14.7584 19.7583C14.8365 19.6808 14.8985 19.5887 14.9408 19.4871C14.9831 19.3856 15.0049 19.2766 15.0049 19.1666C15.0049 19.0566 14.9831 18.9477 14.9408 18.8462C14.8985 18.7446 14.8365 18.6524 14.7584 18.575L7.95005 11.7666C7.48188 11.2979 7.21892 10.6625 7.21892 9.99998C7.21892 9.33748 7.48188 8.70207 7.95005 8.23332L14.7584 1.42499C14.9153 1.26807 15.0035 1.05524 15.0035 0.833324C15.0035 0.611406 14.9153 0.398578 14.7584 0.241658C14.6015 0.0847385 14.3886 -0.00341797 14.1667 -0.00341797C13.9448 -0.00341797 13.732 0.0847385 13.5751 0.241658L6.76672 7.04998C6.37869 7.43703 6.07083 7.89683 5.86078 8.40304C5.65073 8.90924 5.5426 9.45192 5.5426 9.99998C5.5426 10.548 5.65073 11.0907 5.86078 11.5969C6.07083 12.1031 6.37869 12.5629 6.76672 12.95L13.5751 19.7583C13.6529 19.8355 13.7453 19.8966 13.8468 19.9381C13.9483 19.9796 14.057 20.0006 14.1667 20Z" fill="currentColor"/>
</svg>
